<svg xmlns="http://www.w3.org/2000/svg" xml:space="preserve" viewBox="0 0 512 512"><path d="M343.5 382.5 286 438.1c-10 10-23.7 14.2-38.9 14.2s-28.9-4.2-38.9-14.2l-92.4-93c-9.9-10-15-24.6-15-39.8s5.1-29 15-38.9l92.2-93.5c9.9-9.9 24-13.7 39.2-13.7s28.9 4.2 38.9 14.2l57.5 55.6c11 11 29.2 10.6 40.6-.8 11.3-11.4 11.8-29.6.8-40.6l-55.6-56.2c-14.4-14.3-32.5-24.1-52.2-28.6l52.6-53.3c11-11 10.7-29.2-.8-40.6C317.5-2.6 299.3-3 288.3 8L72.8 223.5c-20.9 21-31.8 49.8-31.8 81.8 0 31.9 10.9 61.8 31.8 82.7l92.8 93c20.9 20.9 49.8 31 81.8 31 31.9 0 60.8-10.9 81.8-31.8l55.7-56.3c11-10.9 10.6-29.1-.8-40.5-11.5-11.5-29.7-11.9-40.6-.9M444 277.6H227.4c-14.9 0-27.1 12.8-27.1 28.7s12.2 28.8 27.1 28.8H444c14.9 0 27.1-12.9 27.1-28.8-.1-15.9-12.2-28.7-27.1-28.7"/></svg>